<?xml version="1.0" encoding="UTF-8" standalone="no"?>
<svg width="36px" height="25px" viewBox="0 0 36 25" version="1.1" xmlns="http://www.w3.org/2000/svg" xmlns:xlink="http://www.w3.org/1999/xlink" xmlns:sketch="http://www.bohemiancoding.com/sketch/ns">
    <!-- Generator: Sketch 3.3 (11970) - http://www.bohemiancoding.com/sketch -->
    <title>Rectangle 9 + calendar-icon</title>
    <desc>Created with Sketch.</desc>
    <defs/>
    <g id="Page-1" stroke="none" stroke-width="1" fill="none" fill-rule="evenodd" sketch:type="MSPage">
        <g id="Rectangle-9-+-calendar-icon" sketch:type="MSLayerGroup">
            <rect id="Rectangle-9" fill="#FFFFFF" sketch:type="MSShapeGroup" x="0" y="0" width="36" height="25"/>
            <g id="calendar-icon" fill="#35312A" sketch:type="MSShapeGroup">
                <g id="Group">
                    <rect id="Rectangle-path" x="4" y="0" width="3" height="6"/>
                    <rect id="Rectangle-path" x="16" y="0" width="3" height="6"/>
                    <path d="M20,3 L20,7 L15,7 L15,3 L8,3 L8,7 L3,7 L3,3 L0,3 L0,25 L23,25 L23,3 L20,3 L20,3 Z M21,23 L2,23 L2,9 L21,9 L21,23 L21,23 Z" id="Shape"/>
                    <rect id="Rectangle-path" x="5" y="12" width="3" height="3"/>
                    <rect id="Rectangle-path" x="10" y="12" width="3" height="3"/>
                    <rect id="Rectangle-path" x="15" y="12" width="3" height="3"/>
                    <rect id="Rectangle-path" x="5" y="17" width="3" height="3"/>
                    <rect id="Rectangle-path" x="10" y="17" width="3" height="3"/>
                    <rect id="Rectangle-path" x="15" y="17" width="3" height="3"/>
                </g>
            </g>
        </g>
    </g>
</svg>