<?xml version="1.0" encoding="utf-8"?>
<!-- Generator: Adobe Illustrator 17.0.0, SVG Export Plug-In . SVG Version: 6.00 Build 0)  -->
<!DOCTYPE svg PUBLIC "-//W3C//DTD SVG 1.1//EN" "http://www.w3.org/Graphics/SVG/1.1/DTD/svg11.dtd">
<svg version="1.1" id="Capa_1" xmlns="http://www.w3.org/2000/svg" xmlns:xlink="http://www.w3.org/1999/xlink" x="0px" y="0px"
	 width="50px" height="50px" viewBox="0 0 50 50" enable-background="new 0 0 50 50" xml:space="preserve">
<path fill="#FFFFFF" d="M34.779,15.167c-2.595-2.597-6.046-4.027-9.722-4.03c-7.576,0-13.742,6.162-13.745,13.737
	c0,2.422,0.631,4.786,1.836,6.869l-1.95,7.12l7.284-1.909c2.007,1.093,4.267,1.672,6.568,1.672h0.009
	c7.573,0,13.74-6.164,13.742-13.74C38.802,21.215,37.375,17.764,34.779,15.167z M26.539,29.379l-3.82-4.099l-7.453,4.099
	l8.199-8.758l3.913,4.099l7.36-4.099L26.539,29.379z"/>
</svg>
