<?xml version="1.0" encoding="utf-8"?>
<!-- Generator: Adobe Illustrator 17.0.0, SVG Export Plug-In . SVG Version: 6.00 Build 0)  -->
<!DOCTYPE svg PUBLIC "-//W3C//DTD SVG 1.1//EN" "http://www.w3.org/Graphics/SVG/1.1/DTD/svg11.dtd">
<svg version="1.1" id="Capa_1" xmlns="http://www.w3.org/2000/svg" xmlns:xlink="http://www.w3.org/1999/xlink" x="0px" y="0px"
	 width="50px" height="50px" viewBox="0 0 50 50" enable-background="new 0 0 50 50" xml:space="preserve">
<path fill="#FFFFFF" d="M37.033,12.855c-2.938-2.941-6.846-4.56-11.009-4.563c-8.578,0-15.561,6.978-15.564,15.556
	c0,2.742,0.714,5.42,2.079,7.778l-2.208,8.063l8.248-2.162c2.272,1.238,4.832,1.893,7.437,1.893h0.011
	c8.576,0,15.559-6.98,15.561-15.559C41.588,19.703,39.971,15.796,37.033,12.855z M26.015,36.881h-0.009
	c-2.176,0-4.315-0.548-6.213-1.582l-6.891,1.806l1.844-6.736c-1.14-1.97-1.737-4.207-1.737-6.498
	c0.002-7.167,5.836-12.996,13.003-12.996c3.478,0.002,6.742,1.355,9.197,3.812c2.456,2.457,3.806,5.722,3.807,9.196
	C39.013,31.049,33.18,36.881,26.015,36.881z"/>
<path fill="#FFFFFF" d="M32.812,28.862c-0.292,0.816-1.719,1.605-2.36,1.663s-1.243,0.292-4.198-0.875
	c-3.554-1.402-5.8-5.047-5.975-5.28c-0.173-0.233-1.427-1.896-1.427-3.617s0.903-2.568,1.224-2.918
	c0.322-0.35,0.7-0.438,0.933-0.438c0.231,0,0.466,0,0.669,0.009c0.25,0.009,0.527,0.021,0.788,0.604
	c0.31,0.693,0.991,2.421,1.078,2.596s0.145,0.38,0.028,0.613c-0.117,0.233-0.175,0.378-0.35,0.583
	c-0.175,0.205-0.369,0.457-0.525,0.613c-0.175,0.175-0.359,0.364-0.154,0.714c0.203,0.352,0.905,1.495,1.945,2.423
	c1.336,1.192,2.463,1.56,2.813,1.735c0.35,0.175,0.553,0.145,0.758-0.089c0.205-0.233,0.875-1.022,1.108-1.371
	c0.233-0.35,0.466-0.292,0.788-0.175s2.041,0.963,2.391,1.138c0.35,0.175,0.583,0.264,0.672,0.408
	C33.103,27.346,33.103,28.046,32.812,28.862z"/>
</svg>
